<?xml version="1.0" encoding="utf-8"?>
<!-- Generator: Adobe Illustrator 15.0.2, SVG Export Plug-In . SVG Version: 6.00 Build 0)  -->
<svg version="1.2" baseProfile="tiny" id="Layer_1" xmlns="http://www.w3.org/2000/svg" xmlns:xlink="http://www.w3.org/1999/xlink"
	 x="0px" y="0px" width="1040px" height="195px" viewBox="-385 -72.5 1040 195" overflow="inherit" xml:space="preserve">
<g>
	<g>
		<polygon fill="#FFFFFF" points="-191.326,-10.523 -191.326,-72.5 -385,-72.5 -385,-26.019 -356.549,-26.019 -243.444,86.312 
			-296.878,86.312 -333.839,49.363 -385,100.158 -385,121.174 -191.326,121.174 -191.326,86.312 -234.093,86.312 -271.797,47.578 
			-191.326,47.578 -191.326,28.211 -290.65,28.211 -328.351,-8.588 -290.699,-45.386 -237.312,-45.386 -275.017,-10.523 		"/>
		<polygon fill="#FFFFFF" points="-385,-1.688 -385,47.256 -360.307,22.762 		"/>
	</g>
	<g>
		<path fill="#FFFFFF" d="M-157.552,11.057h-11.68l13.111-42.527l-12.89-38.453h11.677l6.505,20.494l0.329,0.991h0.44l0.331-0.991
			l6.499-20.494h11.679l-12.892,38.453l13.113,42.527h-11.684l-6.829-24.129l-0.222-0.992h-0.44l-0.222,0.992L-157.552,11.057z"/>
		<path fill="#FFFFFF" d="M-129.343,11.057l12.229-80.984h14.545l12.227,80.984h-11.564l-2.203-16.529h-11.458l-2.204,16.529
			H-129.343z M-109.178-43.597l-0.328-2.096h-0.662l-0.332,2.096l-3.418,25.562h8.148L-109.178-43.597z"/>
		<path fill="#FFFFFF" d="M-65.652-69.928h11.572l-12.342,80.984h-11.9l-12.344-80.984h11.57l5.951,44.511l0.439,3.416h0.658
			l0.443-3.416L-65.652-69.928z"/>
		<path fill="#FFFFFF" d="M-48.68-69.928h11.898v80.984H-48.68V-69.928z"/>
		<path fill="#FFFFFF" d="M-27.967-69.928H-0.75v12.229h-15.316v21.261h11.016v13.003h-11.016v22.257H-0.75v12.23h-27.217V-69.928z"
			/>
		<path fill="#FFFFFF" d="M27.127,11.057l-6.17-34.158h-3.195v34.158H5.863v-80.984h11.898c14.104,0,20.273,8.149,20.273,23.356
			c0,8.046-2.096,15.316-6.613,18.398l7.6,39.226H27.127V11.057z M17.762-58.141v24.02c3.307,0,8.814-0.442,8.814-12.008
			C26.576-57.698,21.068-58.141,17.762-58.141z"/>
		<path fill="#FFFFFF" d="M62.613,11.057v-80.984c0,0,5.949,0,10.469,0c14.213,0,21.707,5.399,21.707,21.485
			c0,7.492-1.654,11.787-7.383,16.746c0,0,8.262,3.745,8.262,19.833c0,11.898-4.186,22.365-18.4,22.92H62.613z M74.508-58.141
			v21.599c2.209,0,8.814,0.329,8.814-10.803C83.328-58.47,76.717-58.141,74.508-58.141z M74.508-25.634v24.897
			c2.209,0,8.814,0.883,8.814-12.449C83.328-26.514,76.717-25.634,74.508-25.634z"/>
		<path fill="#FFFFFF" d="M117.816,11.934c-15.977,0-15.865-17.516-15.865-17.516v-47.709c0,0-0.109-17.517,15.865-17.517
			s15.867,17.517,15.867,17.517v47.709C133.684-5.582,133.791,11.934,117.816,11.934z M117.816-59.241
			c-4.188,0-3.965,5.95-3.965,5.95v47.709c0,0-0.219,5.949,3.965,5.949c4.188,0,3.967-5.949,3.967-5.949v-47.709
			C121.783-53.291,122.004-59.241,117.816-59.241z"/>
		<path fill="#FFFFFF" d="M154.291-31.142l-0.99-3.751h-0.662v3.751v42.198h-10.906v-80.984h10.58l11.572,42.198l0.99,3.744h0.658
			v-3.744v-42.198h10.902v80.984h-10.572L154.291-31.142z"/>
		<path fill="#FFFFFF" d="M185.258-69.928h27.211v12.229h-15.314v21.261h11.018v13.003h-11.018v22.257h15.314v12.23h-27.211V-69.928
			z"/>
		<path fill="#FFFFFF" d="M219.086-69.928h11.896V0.035h15.754v11.021h-27.654v-80.984H219.086z"/>
		<path fill="#FFFFFF" d="M251.59-69.928h11.9V0.035h15.752v11.021H251.59V-69.928L251.59-69.928z"/>
		<path fill="#FFFFFF" d="M-137.393,52.5h-16.415v21.258h11.021v12.234h-11.021v35.254h-11.898v-80.98c0,0,1.213,0,28.313,0V52.5z"
			/>
		<path fill="#FFFFFF" d="M-111.273,121.246l-6.169-34.154h-3.196v34.154h-11.898v-80.98h11.898
			c14.104,0,20.273,8.156,20.273,23.363c0,8.041-2.096,15.311-6.611,18.398l7.6,39.219H-111.273L-111.273,121.246z M-120.639,52.057
			v24.016c3.308,0,8.816-0.438,8.816-12.01C-111.822,52.5-117.331,52.057-120.639,52.057z"/>
		<path fill="#FFFFFF" d="M-77.662,122.131c-15.977,0-15.865-17.514-15.865-17.514V56.902c0,0-0.111-17.521,15.865-17.521
			c15.979,0,15.865,17.521,15.865,17.521v47.707C-61.797,104.617-61.689,122.131-77.662,122.131z M-77.662,50.953
			c-4.188,0-3.967,5.949-3.967,5.949v47.707c0,0-0.221,5.947,3.967,5.947c4.186,0,3.967-5.947,3.967-5.947V56.902
			C-73.695,56.902-73.477,50.953-77.662,50.953z"/>
		<path fill="#FFFFFF" d="M-41.189,79.051l-0.992-3.746h-0.658v3.746v42.195h-10.908v-80.98h10.576l11.568,42.199l0.994,3.746h0.656
			v-3.746V40.266h10.908v80.98h-10.574L-41.189,79.051z"/>
		<path fill="#FFFFFF" d="M-14.412,52.5V40.266h34.377V52.5H8.729v68.746H-3.17V52.5H-14.412z"/>
		<path fill="#FFFFFF" d="M24.156,86.32h15.975v10.471H24.156V86.32z"/>
		<path fill="#FFFFFF" d="M48.508,40.266h27.211V52.5H60.402v21.258h11.021v13.006H60.402v22.256h15.316v12.227H48.508V40.266z"/>
		<path fill="#FFFFFF" d="M94.898,79.051l-0.992-3.746h-0.66v3.746v42.195H82.34v-80.98h10.574l11.57,42.199l0.992,3.746h0.658
			v-3.746V40.266h10.906v80.98h-10.574L94.898,79.051z"/>
		<path fill="#FFFFFF" d="M135.229,121.246h-9.365v-80.98h9.365c22.037,0.113,23.689,8.822,23.689,40.547
			C158.918,112.432,157.266,121.141,135.229,121.246z M137.762,109.35c8.379,0,8.928-2.088,8.812-28.646
			c0.115-26.441-0.438-28.537-8.812-28.537V109.35z"/>
		<path fill="#FFFFFF" d="M200.898,121.246h-9.256l-10.902-80.98h11.016l4.74,42.094l0.223,2.645h0.885l0.326-2.645l5.068-42.094
			c0,0,8.488,0,8.594,0l5.072,42.094l0.326,2.645h0.881l0.227-2.645l4.736-42.094h11.023l-10.91,80.98h-9.252l-5.508-38.338
			l-0.666-4.74h-0.438l-0.658,4.74L200.898,121.246z"/>
		<path fill="#FFFFFF" d="M239.588,40.266h27.209V52.5h-15.312v21.258H262.5v13.006h-11.016v22.256h15.312v12.227h-27.209V40.266z"
			/>
		<path fill="#FFFFFF" d="M273.408,121.246v-80.98c0,0,5.955,0,10.471,0c14.217,0,21.709,5.402,21.709,21.486
			c0,7.49-1.652,11.787-7.387,16.75c0,0,8.262,3.744,8.262,19.828c0,11.896-4.184,22.367-18.4,22.916H273.408z M285.309,52.057
			v21.596c2.203,0,8.814,0.332,8.814-10.803C294.127,51.725,287.514,52.057,285.309,52.057z M285.309,84.559v24.9
			c2.203,0,8.814,0.885,8.814-12.445C294.127,83.676,287.514,84.559,285.309,84.559z"/>
		<path fill="#FFFFFF" d="M339.852,121.246h-9.357v-80.98h9.361c22.039,0.113,23.691,8.822,23.691,40.547
			C363.543,112.432,361.895,121.141,339.852,121.246z M342.391,109.35c8.379,0,8.926-2.088,8.812-28.646
			c0.113-26.441-0.434-28.537-8.812-28.537V109.35z"/>
		<path fill="#FFFFFF" d="M371.479,40.266h27.221V52.5h-15.32v21.258h11.02v13.006h-11.02v22.256h15.32v12.227h-27.221V40.266z"/>
		<path fill="#FFFFFF" d="M426.91,40.266h11.561l-12.336,80.98h-11.9L401.9,40.266h11.566l5.947,44.516l0.445,3.416h0.658
			l0.439-3.416L426.91,40.266z"/>
		<path fill="#FFFFFF" d="M443.873,40.266h27.219V52.5h-15.318v21.258h11.014v13.006h-11.014v22.256h15.318v12.227h-27.219V40.266z"
			/>
		<path fill="#FFFFFF" d="M477.705,40.266h11.9v69.961h15.75v11.02h-27.65V40.266L477.705,40.266z"/>
		<path fill="#FFFFFF" d="M525.307,122.131c-15.971,0-15.865-17.514-15.865-17.514V56.902c0,0-0.105-17.521,15.865-17.521
			c15.979,0,15.871,17.521,15.871,17.521v47.707C541.178,104.617,541.285,122.131,525.307,122.131z M525.307,50.953
			c-4.184,0-3.965,5.949-3.965,5.949v47.707c0,0-0.219,5.947,3.965,5.947c4.191,0,3.967-5.947,3.967-5.947V56.902
			C529.277,56.902,529.498,50.953,525.307,50.953z"/>
		<path fill="#FFFFFF" d="M549.221,40.266c0,0,11.352,0,11.904,0c10.361,0,20.934,5.621,20.934,24.244
			c0,18.621-10.572,24.35-20.934,24.35v32.395h-11.904V40.266z M561.121,76.73c7.49,0,8.928-2.746,8.928-11.785
			c0-9.033-1.438-12.562-8.928-12.562V76.73z"/>
		<path fill="#FFFFFF" d="M588.012,40.266h27.209V52.5h-15.312v21.258h11.02v13.006h-11.02v22.256h15.312v12.227h-27.209V40.266
			L588.012,40.266z"/>
		<path fill="#FFFFFF" d="M643.1,121.246l-6.166-34.154h-3.191v34.154H621.84v-80.98h11.902c14.094,0,20.268,8.156,20.268,23.363
			c0,8.041-2.096,15.311-6.605,18.398L655,121.246H643.1L643.1,121.246z M633.742,52.057v24.016c3.297,0,8.812-0.438,8.812-12.01
			C642.559,52.5,637.039,52.057,633.742,52.057z"/>
	</g>
</g>
</svg>
