<svg version="1.2" baseProfile="tiny" xmlns="http://www.w3.org/2000/svg" width="1040" height="195" viewBox="-385 -72.5 1040 195" overflow="inherit" xml:space="preserve"><g fill="#FFF"><path d="M-191.326-10.523V-72.5H-385v46.481h28.451l113.105 112.331h-53.434l-36.961-36.949L-385 100.158v21.016h193.674V86.312h-42.767l-37.704-38.734h80.471V28.211h-99.324l-37.701-36.799 37.652-36.798h53.387l-37.705 34.863z"/><path d="M-385-1.688v48.944l24.693-24.494zM-157.552 11.057h-11.68l13.111-42.527-12.89-38.453h11.677l6.505 20.494.329.991h.44l.331-.991 6.499-20.494h11.679l-12.892 38.453 13.113 42.527h-11.684l-6.829-24.129-.222-.992h-.44l-.222.992-6.825 24.129zM-129.343 11.057l12.229-80.984h14.545l12.227 80.984h-11.564l-2.203-16.529h-11.458l-2.204 16.529h-11.572zm20.165-54.654-.328-2.096h-.662l-.332 2.096-3.418 25.562h8.148l-3.408-25.562zM-65.652-69.928h11.572l-12.342 80.984h-11.9l-12.344-80.984h11.57l5.951 44.511.439 3.416h.658l.443-3.416 5.953-44.511zM-48.68-69.928h11.898v80.984H-48.68v-80.984zM-27.967-69.928H-.75v12.229h-15.316v21.261H-5.05v13.003h-11.016v22.257H-.75v12.23h-27.217v-80.98zM27.127 11.057l-6.17-34.158h-3.195v34.158H5.863v-80.984h11.898c14.104 0 20.273 8.149 20.273 23.356 0 8.046-2.096 15.316-6.613 18.398l7.6 39.226H27.127v.004zm-9.365-69.198v24.02c3.307 0 8.814-.442 8.814-12.008 0-11.569-5.508-12.012-8.814-12.012zM62.613 11.057v-80.984h10.469c14.213 0 21.707 5.399 21.707 21.485 0 7.492-1.654 11.787-7.383 16.746 0 0 8.262 3.745 8.262 19.833 0 11.898-4.186 22.365-18.4 22.92H62.613zm11.895-69.198v21.599c2.209 0 8.814.329 8.814-10.803.006-11.125-6.605-10.796-8.814-10.796zm0 32.507V-.737c2.209 0 8.814.883 8.814-12.449.006-13.328-6.605-12.448-8.814-12.448zM117.816 11.934c-15.977 0-15.865-17.516-15.865-17.516v-47.709s-.109-17.517 15.865-17.517 15.867 17.517 15.867 17.517v47.709c.001 0 .108 17.516-15.867 17.516zm0-71.175c-4.188 0-3.965 5.95-3.965 5.95v47.709s-.219 5.949 3.965 5.949c4.188 0 3.967-5.949 3.967-5.949v-47.709s.221-5.95-3.967-5.95zM154.291-31.142l-.99-3.751h-.662v45.949h-10.906v-80.984h10.58l11.572 42.198.99 3.744h.658v-45.942h10.902v80.984h-10.572l-11.572-42.198zM185.258-69.928h27.211v12.229h-15.314v21.261h11.018v13.003h-11.018v22.257h15.314v12.23h-27.211v-80.98zM219.086-69.928h11.896V.035h15.754v11.021h-27.654v-80.984h.004zM251.59-69.928h11.9V.035h15.752v11.021H251.59v-80.984zM-137.393 52.5h-16.415v21.258h11.021v12.234h-11.021v35.254h-11.898v-80.98h28.313V52.5zM-111.273 121.246l-6.169-34.154h-3.196v34.154h-11.898v-80.98h11.898c14.104 0 20.273 8.156 20.273 23.363 0 8.041-2.096 15.311-6.611 18.398l7.6 39.219h-11.897zm-9.366-69.189v24.016c3.308 0 8.816-.438 8.816-12.01.001-11.563-5.508-12.006-8.816-12.006zM-77.662 122.131c-15.977 0-15.865-17.514-15.865-17.514V56.902s-.111-17.521 15.865-17.521c15.979 0 15.865 17.521 15.865 17.521v47.707c0 .008.108 17.522-15.865 17.522zm0-71.178c-4.188 0-3.967 5.949-3.967 5.949v47.707s-.221 5.947 3.967 5.947c4.186 0 3.967-5.947 3.967-5.947V56.902s.218-5.949-3.967-5.949zM-41.189 79.051l-.992-3.746h-.658v45.941h-10.908v-80.98h10.576l11.568 42.199.994 3.746h.656V40.266h10.908v80.98h-10.574l-11.57-42.195zM-14.412 52.5V40.266h34.377V52.5H8.729v68.746H-3.17V52.5h-11.242zM24.156 86.32h15.975v10.471H24.156V86.32zM48.508 40.266h27.211V52.5H60.402v21.258h11.021v13.006H60.402v22.256h15.316v12.227h-27.21V40.266zM94.898 79.051l-.992-3.746h-.66v45.941H82.34v-80.98h10.574l11.57 42.199.992 3.746h.658V40.266h10.906v80.98h-10.574L94.898 79.051zM135.229 121.246h-9.365v-80.98h9.365c22.037.113 23.689 8.822 23.689 40.547 0 31.619-1.652 40.328-23.689 40.433zm2.533-11.896c8.379 0 8.928-2.088 8.812-28.646.115-26.441-.438-28.537-8.812-28.537v57.183zM200.898 121.246h-9.256l-10.902-80.98h11.016l4.74 42.094.223 2.645h.885l.326-2.645 5.068-42.094h8.594l5.072 42.094.326 2.645h.881l.227-2.645 4.736-42.094h11.023l-10.91 80.98h-9.252l-5.508-38.338-.666-4.74h-.438l-.658 4.74-5.527 38.338zM239.588 40.266h27.209V52.5h-15.312v21.258H262.5v13.006h-11.016v22.256h15.312v12.227h-27.209V40.266zM273.408 121.246v-80.98h10.471c14.217 0 21.709 5.402 21.709 21.486 0 7.49-1.652 11.787-7.387 16.75 0 0 8.262 3.744 8.262 19.828 0 11.896-4.184 22.367-18.4 22.916h-14.655zm11.901-69.189v21.596c2.203 0 8.814.332 8.814-10.803.004-11.125-6.609-10.793-8.814-10.793zm0 32.502v24.9c2.203 0 8.814.885 8.814-12.445.004-13.338-6.609-12.455-8.814-12.455zM339.852 121.246h-9.357v-80.98h9.361c22.039.113 23.691 8.822 23.691 40.547-.004 31.619-1.652 40.328-23.695 40.433zm2.539-11.896c8.379 0 8.926-2.088 8.812-28.646.113-26.441-.434-28.537-8.812-28.537v57.183zM371.479 40.266H398.7V52.5h-15.32v21.258h11.02v13.006h-11.02v22.256h15.32v12.227h-27.221V40.266zM426.91 40.266h11.561l-12.336 80.98h-11.9L401.9 40.266h11.566l5.947 44.516.445 3.416h.658l.439-3.416 5.955-44.516zM443.873 40.266h27.219V52.5h-15.318v21.258h11.014v13.006h-11.014v22.256h15.318v12.227h-27.219V40.266zM477.705 40.266h11.9v69.961h15.75v11.02h-27.65V40.266zM525.307 122.131c-15.971 0-15.865-17.514-15.865-17.514V56.902s-.105-17.521 15.865-17.521c15.979 0 15.871 17.521 15.871 17.521v47.707c0 .008.107 17.522-15.871 17.522zm0-71.178c-4.184 0-3.965 5.949-3.965 5.949v47.707s-.219 5.947 3.965 5.947c4.191 0 3.967-5.947 3.967-5.947V56.902c.003 0 .224-5.949-3.967-5.949zM549.221 40.266h11.904c10.361 0 20.934 5.621 20.934 24.244 0 18.621-10.572 24.35-20.934 24.35v32.395h-11.904V40.266zm11.9 36.464c7.49 0 8.928-2.746 8.928-11.785 0-9.033-1.438-12.562-8.928-12.562V76.73zM588.012 40.266h27.209V52.5h-15.312v21.258h11.02v13.006h-11.02v22.256h15.312v12.227h-27.209V40.266zM643.1 121.246l-6.166-34.154h-3.191v34.154H621.84v-80.98h11.902c14.094 0 20.268 8.156 20.268 23.363 0 8.041-2.096 15.311-6.605 18.398L655 121.246h-11.9zm-9.358-69.189v24.016c3.297 0 8.812-.438 8.812-12.01.005-11.563-5.515-12.006-8.812-12.006z"/></g></svg>