<?xml version="1.0" encoding="utf-8"?>
<!-- Generated by IcoMoon.io -->
<!DOCTYPE svg PUBLIC "-//W3C//DTD SVG 1.1//EN" "http://www.w3.org/Graphics/SVG/1.1/DTD/svg11.dtd">
<svg version="1.1" xmlns="http://www.w3.org/2000/svg" xmlns:xlink="http://www.w3.org/1999/xlink" width="32" height="32" viewBox="0 0 32 32">
<path d="M27.314 4.686c-3.022-3.022-7.040-4.686-11.314-4.686s-8.292 1.664-11.314 4.686c-3.022 3.022-4.686 7.040-4.686 11.314s1.664 8.292 4.686 11.314c3.022 3.022 7.040 4.686 11.314 4.686 2.51 0 4.914-0.565 7.144-1.68 2.126-1.062 4.023-2.618 5.487-4.498 0.271-0.349 0.209-0.851-0.14-1.123s-0.851-0.209-1.123 0.14c-2.752 3.534-6.896 5.561-11.369 5.561-7.94 0-14.4-6.46-14.4-14.4s6.46-14.4 14.4-14.4 14.4 6.46 14.4 14.4c0 2.826-1.645 4.8-4 4.8-2.206 0-4-1.794-4-4v-6.4c0-0.442-0.358-0.8-0.8-0.8s-0.8 0.358-0.8 0.8v1.372c-1.174-1.331-2.89-2.172-4.8-2.172-3.529 0-6.4 2.871-6.4 6.4s2.871 6.4 6.4 6.4c2.288 0 4.3-1.208 5.431-3.019 0.935 1.792 2.811 3.019 4.968 3.019 1.548 0 2.965-0.629 3.99-1.772 1.053-1.175 1.61-2.775 1.61-4.628 0-4.274-1.664-8.292-4.686-11.314zM16 20.8c-2.647 0-4.8-2.153-4.8-4.8s2.153-4.8 4.8-4.8 4.8 2.153 4.8 4.8-2.153 4.8-4.8 4.8z"></path>
</svg>
