<svg viewBox="0 0 512 512" xmlns="http://www.w3.org/2000/svg" xmlns:xlink="http://www.w3.org/1999/xlink" fill="#000000"><path d="M 224.00,32.00 C 224.00,14.327 238.327,0.00 256.00,0.00 C 273.674,0.00 288.00,14.327 288.00,32.00 C 288.00,49.673 273.674,64.00 256.00,64.00 C 238.327,64.00 224.00,49.673 224.00,32.00 Z M 224.00,480.00 C 224.00,462.327 238.327,448.00 256.00,448.00 C 273.674,448.00 288.00,462.327 288.00,480.00 C 288.00,497.673 273.674,512.00 256.00,512.00 C 238.327,512.00 224.00,497.673 224.00,480.00 Z M 448.00,256.00 C 448.00,238.327 462.327,224.00 480.00,224.00 C 497.673,224.00 512.00,238.327 512.00,256.00 C 512.00,273.674 497.673,288.00 480.00,288.00 C 462.327,288.00 448.00,273.674 448.00,256.00 Z M 0.00,256.00 C 0.00,238.327 14.327,224.00 32.00,224.00 C 49.673,224.00 64.00,238.327 64.00,256.00 C 64.00,273.674 49.673,288.00 32.00,288.00 C 14.327,288.00 0.00,273.674 0.00,256.00 Z M 384.001,96.00 C 384.001,78.327 398.328,64.00 416.001,64.00 C 433.674,64.00 448.001,78.327 448.001,96.00 C 448.001,113.673 433.674,128.00 416.001,128.00 C 398.328,128.00 384.001,113.673 384.001,96.00 Z M 64.00,416.00 C 64.00,398.327 78.327,384.00 96.00,384.00 C 113.673,384.00 128.00,398.327 128.00,416.00 C 128.00,433.673 113.673,448.00 96.00,448.00 C 78.327,448.00 64.00,433.673 64.00,416.00 Z M 384.001,416.00 C 384.001,398.327 398.328,384.00 416.001,384.00 C 433.674,384.00 448.001,398.327 448.001,416.00 C 448.001,433.673 433.674,448.00 416.001,448.00 C 398.328,448.00 384.001,433.673 384.001,416.00 Z M 64.00,96.00 C 64.00,78.327 78.327,64.00 96.00,64.00 C 113.673,64.00 128.00,78.327 128.00,96.00 C 128.00,113.673 113.673,128.00 96.00,128.00 C 78.327,128.00 64.00,113.673 64.00,96.00 ZM 256.00,192.00 C 220.71,192.00 192.00,220.71 192.00,256.00 C 192.00,291.29 220.71,320.00 256.00,320.00 C 291.29,320.00 320.00,291.29 320.00,256.00 C 320.00,220.71 291.29,192.00 256.00,192.00 Z M 256.00,128.00 L 256.00,128.00 C 326.692,128.00 384.00,185.308 384.00,256.00 C 384.00,326.692 326.692,384.00 256.00,384.00 C 185.308,384.00 128.00,326.692 128.00,256.00 C 128.00,185.308 185.308,128.00 256.00,128.00 Z" ></path></svg>