<?xml version="1.0" encoding="utf-8"?>
<!-- Generated by IcoMoon.io -->
<!DOCTYPE svg PUBLIC "-//W3C//DTD SVG 1.1//EN" "http://www.w3.org/Graphics/SVG/1.1/DTD/svg11.dtd">
<svg version="1.1" xmlns="http://www.w3.org/2000/svg" xmlns:xlink="http://www.w3.org/1999/xlink" width="32" height="32" viewBox="0 0 32 32">
<path d="M31.481 7.062c-0.635-1.1-1.852-1.826-3.518-2.098-1.413-0.231-3.122-0.151-5.081 0.238-2.037-1.304-4.405-2.002-6.881-2.002-3.419 0-6.633 1.331-9.051 3.749s-3.749 5.632-3.749 9.051c0 0.186 0.005 0.371 0.013 0.556-1.319 1.504-2.244 2.944-2.751 4.285-0.597 1.58-0.577 2.997 0.058 4.097 0.844 1.462 2.662 2.225 5.219 2.225 0.717 0 1.491-0.060 2.319-0.181 0.348-0.051 0.702-0.113 1.062-0.184 2.036 1.303 4.405 2.002 6.881 2.002 3.419 0 6.633-1.331 9.051-3.749s3.749-5.632 3.749-9.051c0-0.186-0.005-0.371-0.012-0.555 0.243-0.277 0.475-0.555 0.694-0.833 2.37-2.997 3.080-5.678 1.999-7.55zM16 4.8c5.797 0 10.58 4.428 11.144 10.079-2.064 2.225-4.902 4.424-8.153 6.301-3.249 1.876-6.57 3.233-9.527 3.909-2.823-2.036-4.664-5.351-4.664-9.089 0-6.176 5.024-11.2 11.2-11.2zM1.905 24.138c-0.689-1.194-0.095-3.151 1.589-5.395 0.515 2.372 1.698 4.551 3.455 6.308 0.14 0.14 0.282 0.275 0.427 0.407-2.805 0.338-4.787-0.136-5.471-1.32zM16 27.2c-1.626 0-3.171-0.349-4.567-0.974 2.677-0.786 5.549-2.038 8.358-3.66s5.33-3.483 7.349-5.409c-0.581 5.634-5.355 10.043-11.141 10.043zM25.051 6.949c-0.14-0.14-0.282-0.275-0.427-0.408 2.788-0.337 4.782 0.127 5.471 1.321 0.684 1.184 0.104 3.136-1.589 5.394-0.515-2.372-1.698-4.55-3.455-6.307z"></path>
</svg>
